<svg xmlns="http://www.w3.org/2000/svg" version="1.1" xmlns:xlink="http://www.w3.org/1999/xlink" xmlns:svgjs="http://svgjs.dev/svgjs" width="200" height="200" viewBox="0 0 2000 2000"><g transform="matrix(1,0,0,1,-0.28443113772425477,-0.28443113772459583)"><svg viewBox="0 0 334 334" data-background-color="#ffffff" preserveAspectRatio="xMidYMid meet" height="2000" width="2000" xmlns="http://www.w3.org/2000/svg" xmlns:xlink="http://www.w3.org/1999/xlink"><g id="tight-bounds" transform="matrix(1,0,0,1,0.04749999999998522,0.04750000000001364)"><svg viewBox="0 0 333.90454557049503 333.90454557049503" height="333.90454557049503" width="333.90454557049503"><g><svg></svg></g><g><svg viewBox="0 0 333.90454557049503 333.90454557049503" height="333.90454557049503" width="333.90454557049503"><g><path d="M0 166.952c0-92.205 74.747-166.952 166.952-166.952 92.205 0 166.952 74.747 166.953 166.952 0 92.205-74.747 166.952-166.953 166.953-92.205 0-166.952-74.747-166.952-166.953zM166.952 316.63c82.665 0 149.677-67.013 149.678-149.678 0-82.665-67.013-149.677-149.678-149.677-82.665 0-149.677 67.013-149.677 149.677 0 82.665 67.013 149.677 149.677 149.678z" data-fill-palette-color="tertiary" fill="#915eff" stroke="transparent"></path><ellipse rx="160.27418187383762" ry="160.27418187383762" cx="166.95227278524752" cy="166.95227278524752" fill="#915eff" stroke="transparent" stroke-width="0" fill-opacity="1" data-fill-palette-color="tertiary"></ellipse></g><g transform="matrix(1,0,0,1,117.14707806618667,71.17305217166896)"><svg viewBox="0 0 99.6103894381217 191.55844122715712" height="191.55844122715712" width="99.6103894381217"><g><svg viewBox="0 0 99.6103894381217 191.55844122715712" height="191.55844122715712" width="99.6103894381217"><g><svg viewBox="0 0 99.6103894381217 191.55844122715712" height="191.55844122715712" width="99.6103894381217"><g><svg viewBox="0 0 99.6103894381217 191.55844122715712" height="191.55844122715712" width="99.6103894381217"><g id="textblocktransform"><svg viewBox="0 0 99.6103894381217 191.55844122715712" height="191.55844122715712" width="99.6103894381217" id="textblock"><g><svg viewBox="0 0 99.6103894381217 191.55844122715712" height="191.55844122715712" width="99.6103894381217"><g transform="matrix(1,0,0,1,0,0)"><svg width="99.6103894381217" viewBox="2.6 -37 19.5 37.5" height="191.55844122715712" data-palette-color="#ffffff"><path d="M11.2 0.5L11.2 0.5Q9.25 0.5 7.33 0.18 5.4-0.15 3.5-0.8L3.5-0.8 3.5-4.65Q5.35-3.9 7.15-3.5 8.95-3.1 10.85-3.1L10.85-3.1Q14.25-3.1 16.13-4.5 18-5.9 18-8.95L18-8.95Q18-10.55 17.38-11.83 16.75-13.1 15.28-14.3 13.8-15.5 11.15-16.95L11.15-16.95Q7.9-18.8 6.03-20.4 4.15-22 3.38-23.83 2.6-25.65 2.6-28L2.6-28Q2.6-32.65 5.33-34.83 8.05-37 13.9-37L13.9-37Q15.65-37 17.43-36.8 19.2-36.6 21.15-36.15L21.15-36.15 21.15-25.5 17.15-25.5 17.15-34.6 18.75-32.8Q17.4-33.1 16.23-33.25 15.05-33.4 13.8-33.4L13.8-33.4Q10.2-33.4 8.45-32.08 6.7-30.75 6.7-27.95L6.7-27.95Q6.7-26.4 7.33-25.13 7.95-23.85 9.47-22.63 11-21.4 13.6-19.95L13.6-19.95Q16.8-18.15 18.65-16.53 20.5-14.9 21.3-13.08 22.1-11.25 22.1-8.85L22.1-8.85Q22.1-4.15 19.38-1.83 16.65 0.5 11.2 0.5Z" opacity="1" transform="matrix(1,0,0,1,0,0)" fill="#ffffff" class="wordmark-text-0" data-fill-palette-color="quaternary" id="text-0"></path></svg></g></svg></g></svg></g></svg></g><g></g></svg></g></svg></g></svg></g></svg></g><defs></defs></svg><rect width="333.90454557049503" height="333.90454557049503" fill="none" stroke="none" visibility="hidden"></rect></g></svg></g></svg>